<?xml version="1.0" encoding="UTF-8" standalone="no"?>
<svg
   version="1.1"
   height="315"
   width="342"
   id="svg195"
   sodipodi:docname="ecg_dead.svg"
   inkscape:version="1.2.2 (b0a8486541, 2022-12-01)"
   xml:space="preserve"
   xmlns:inkscape="http://www.inkscape.org/namespaces/inkscape"
   xmlns:sodipodi="http://sodipodi.sourceforge.net/DTD/sodipodi-0.dtd"
   xmlns="http://www.w3.org/2000/svg"
   xmlns:svg="http://www.w3.org/2000/svg"><sodipodi:namedview
     id="namedview197"
     pagecolor="#ffffff"
     bordercolor="#666666"
     borderopacity="1.0"
     inkscape:showpageshadow="2"
     inkscape:pageopacity="0.0"
     inkscape:pagecheckerboard="0"
     inkscape:deskcolor="#d1d1d1"
     showgrid="false"
     inkscape:zoom="0.4882404"
     inkscape:cx="149.51651"
     inkscape:cy="241.68422"
     inkscape:window-width="1452"
     inkscape:window-height="749"
     inkscape:window-x="2195"
     inkscape:window-y="86"
     inkscape:window-maximized="0"
     inkscape:current-layer="svg195" /><defs
     id="defs189"><style
       type="text/css"
       id="style184"><![CDATA[
    .outline { stroke:none; stroke-width:0 }
  ]]></style><g
       id="heart"><path
         d="M0 200 v-200 h200      a100,100 90 0,1 0,200     a100,100 90 0,1 -200,0     z"
         id="path186" /></g><style
       type="text/css"
       id="style2"><![CDATA[
    .outline { stroke:none; stroke-width:0 }
  ]]></style><g
       id="heart-6"><path
         d="M0 200 v-200 h200      a100,100 90 0,1 0,200     a100,100 90 0,1 -200,0     z"
         id="path4" /></g></defs><desc
     id="desc191">
   a nearly perfect heart
	 made of two arcs and a right angle
 </desc><path
     id="path1019"
     style="fill:#c3c3c3;stroke:none;stroke-width:0;fill-opacity:1"
     d="M 238.8418,27.810547 A 82.5,82.500002 0 0 0 180.81055,51.71875 l -18.83789,39.435547 42.74804,43.158203 -46.28125,54.26172 41.30078,32.24219 -18.85156,64.11523 116.29102,-116.28906 A 82.5,82.500002 0 0 0 238.8418,27.810547 Z" /><path
     id="path1019-3"
     style="fill:#c3c3c3;stroke:none;stroke-width:0;fill-opacity:1"
     d="M 105.98047,27.892578 A 82.499999,82.500001 0 0 0 43.833984,168.64258 l 116.671876,116.67187 0.38281,-0.38281 18.85156,-64.11523 L 138.43945,188.57422 184.7207,134.3125 141.97266,91.154297 160.8125,51.714844 a 82.5,82.500002 0 0 0 -0.30664,0.253906 82.499999,82.500001 0 0 0 -54.52539,-24.076172 z" /></svg>
