<?xml version="1.0" encoding="UTF-8" standalone="no"?>
<svg
   version="1.1"
   height="315"
   width="342"
   id="svg195"
   sodipodi:docname="heart_red.svg"
   inkscape:version="1.2.2 (b0a8486541, 2022-12-01)"
   xmlns:inkscape="http://www.inkscape.org/namespaces/inkscape"
   xmlns:sodipodi="http://sodipodi.sourceforge.net/DTD/sodipodi-0.dtd"
   xmlns:xlink="http://www.w3.org/1999/xlink"
   xmlns="http://www.w3.org/2000/svg"
   xmlns:svg="http://www.w3.org/2000/svg">
  <sodipodi:namedview
     id="namedview197"
     pagecolor="#ffffff"
     bordercolor="#666666"
     borderopacity="1.0"
     inkscape:showpageshadow="2"
     inkscape:pageopacity="0.0"
     inkscape:pagecheckerboard="0"
     inkscape:deskcolor="#d1d1d1"
     showgrid="false"
     inkscape:zoom="1.9529616"
     inkscape:cx="177.16682"
     inkscape:cy="128.52275"
     inkscape:window-width="1920"
     inkscape:window-height="1011"
     inkscape:window-x="1920"
     inkscape:window-y="32"
     inkscape:window-maximized="1"
     inkscape:current-layer="svg195" />
  <defs
     id="defs189">
    <style
       type="text/css"
       id="style184"><![CDATA[
    .outline { stroke:none; stroke-width:0 }
  ]]></style>
    <g
       id="heart">
      <path
         d="M0 200 v-200 h200      a100,100 90 0,1 0,200     a100,100 90 0,1 -200,0     z"
         id="path186" />
    </g>
  </defs>
  <desc
     id="desc191">
   a nearly perfect heart
	 made of two arcs and a right angle
 </desc>
  <use
     xlink:href="#heart"
     class="outline "
     fill="#ff0000"
     transform="matrix(-0.38890873,-0.38890873,0.38890873,-0.38890873,170.5061,242.39623)"
     id="use193" />
  <g
     id="g6268"
     transform="matrix(1.1048742,0,0,1.1048742,-23.512596,-11.801093)"
     style="stroke-width:0.90508;fill:#ff0000;fill-opacity:1">
    <path
       id="path476-6"
       style="color:#000000;fill:#ff0000;fill-opacity:1;stroke-width:0.90508;stroke-linecap:round;-inkscape-stroke:none"
       d="m 224.19809,61.343149 a 4.3609312,4.3609312 0 0 0 4.36093,4.36092 c 23.50185,0 42.46115,18.95932 42.46117,42.461181 a 4.3609312,4.3609312 0 0 0 4.36093,4.36092 4.3609312,4.3609312 0 0 0 4.36093,-4.36093 c -2e-5,-28.215491 -22.96754,-51.183031 -51.18303,-51.183031 a 4.3609312,4.3609312 0 0 0 -4.36093,4.36094 z m 0,-22.37363 a 4.3609312,4.3609312 0 0 0 4.36093,4.36094 c 35.85902,-10e-6 64.83479,28.97574 64.83479,64.834781 a 4.3609312,4.3609312 0 0 0 4.36093,4.36093 4.3609312,4.3609312 0 0 0 4.36093,-4.36093 c 0,-40.572691 -32.98399,-73.556651 -73.55665,-73.556651 a 4.3609312,4.3609312 0 0 0 -4.36093,4.36093 z m 0,-22.601887 a 4.3609312,4.3609312 0 0 0 4.36093,4.360933 c 48.34244,-8e-6 87.43668,39.094214 87.43667,87.436685 a 4.3609312,4.3609312 0 0 0 4.36094,4.36092 4.3609312,4.3609312 0 0 0 4.36093,-4.36093 c 0,-53.056091 -43.10245,-96.158541 -96.15854,-96.15854 a 4.3609312,4.3609312 0 0 0 -4.36093,4.360932 z" />
  </g>
</svg>
