<?xml version="1.0" encoding="UTF-8" standalone="no"?>
<!-- Created with Inkscape (http://www.inkscape.org/) -->

<svg
   width="200mm"
   height="200mm"
   version="1.1"
   viewBox="0 0 708.66 708.66"
   id="svg20"
   sodipodi:docname="virtualJoystick.svg"
   inkscape:version="1.2.2 (b0a8486541, 2022-12-01)"
   xmlns:inkscape="http://www.inkscape.org/namespaces/inkscape"
   xmlns:sodipodi="http://sodipodi.sourceforge.net/DTD/sodipodi-0.dtd"
   xmlns="http://www.w3.org/2000/svg"
   xmlns:svg="http://www.w3.org/2000/svg"
   xmlns:rdf="http://www.w3.org/1999/02/22-rdf-syntax-ns#"
   xmlns:cc="http://creativecommons.org/ns#"
   xmlns:dc="http://purl.org/dc/elements/1.1/">
  <defs
     id="defs24" />
  <sodipodi:namedview
     id="namedview22"
     pagecolor="#ffffff"
     bordercolor="#666666"
     borderopacity="1.0"
     inkscape:showpageshadow="2"
     inkscape:pageopacity="0.0"
     inkscape:pagecheckerboard="0"
     inkscape:deskcolor="#d1d1d1"
     inkscape:document-units="mm"
     showgrid="false"
     inkscape:zoom="0.81383571"
     inkscape:cx="281.99795"
     inkscape:cy="459.55221"
     inkscape:window-width="1920"
     inkscape:window-height="1011"
     inkscape:window-x="1920"
     inkscape:window-y="32"
     inkscape:window-maximized="1"
     inkscape:current-layer="g18" />
  <metadata
     id="metadata2">
    <rdf:RDF>
      <cc:Work
         rdf:about="">
        <dc:format>image/svg+xml</dc:format>
        <dc:type
           rdf:resource="http://purl.org/dc/dcmitype/StillImage" />
      </cc:Work>
    </rdf:RDF>
  </metadata>
  <g
     transform="translate(0 -343.7)"
     fill-rule="evenodd"
     shape-rendering="auto"
     id="g18">
    <path
       d="M 353.53,343.7 C 158.1,344.14257 -0.29,503.13 0,698.56 c 0.29505,195.43 159.16,353.94 354.6,353.8 195.43,-0.1475 354.06,-158.9 354.06,-354.33 h -25.954 c 0,181.41 -146.71,328.24 -328.13,328.38 -181.41,0.1369 -328.35,-146.47 -328.62,-327.88 -0.27388,-181.41 146.22,-328.46 327.63,-328.87 181.41,-0.41083 328.57,146.96 329.12,328.37 H 708.66 C 708.0699,502.6 548.96,343.2609 353.53,343.7009 Z"
       color="#000000"
       color-rendering="auto"
       image-rendering="auto"
       solid-color="#000000"
       style="text-indent:0;text-decoration-line:none;text-decoration-style:solid;text-decoration-color:#000000;text-transform:none;white-space:normal;isolation:auto;mix-blend-mode:normal"
       id="path4"
       sodipodi:nodetypes="cccccccccccc" />
    <g
       transform="matrix(1.0382 0 0 1.0382 -13.524 -28.84)"
       id="g10">
      <path
         d="m427.85 520.07h-147.03l73.517-79.834 36.758 39.917z"
         color="#000000"
         color-rendering="auto"
         image-rendering="auto"
         solid-color="#000000"
         style="isolation:auto;mix-blend-mode:normal"
         id="path6" />
      <path
         d="m427.85 880.23h-147.03l73.517 79.834 36.758-39.917z"
         color="#000000"
         color-rendering="auto"
         image-rendering="auto"
         solid-color="#000000"
         style="isolation:auto;mix-blend-mode:normal"
         id="path8" />
    </g>
    <g
       transform="matrix(0 1.0382 -1.0382 0 1081.2 330.18)"
       id="g16">
      <path
         d="m427.85 520.07h-147.03l73.517-79.834 36.758 39.917z"
         color="#000000"
         color-rendering="auto"
         image-rendering="auto"
         solid-color="#000000"
         style="isolation:auto;mix-blend-mode:normal"
         id="path12" />
      <path
         d="m427.85 880.23h-147.03l73.517 79.834 36.758-39.917z"
         color="#000000"
         color-rendering="auto"
         image-rendering="auto"
         solid-color="#000000"
         style="isolation:auto;mix-blend-mode:normal"
         id="path14" />
    </g>
  </g>
</svg>
